<svg width="1584" height="396" viewBox="0 0 1584 396" xmlns="http://www.w3.org/2000/svg"><path d="M 814 134.500 C 814 138.633, 813.796 139, 811.500 139 C 809.500 139, 809 139.500, 809 141.500 C 809 143.500, 809.500 144, 811.500 144 L 814 144 814 154.326 C 814 163.826, 814.185 164.825, 816.314 166.826 C 820.762 171.004, 830.660 169.088, 829.380 164.296 C 828.885 162.444, 828.304 162.189, 825.745 162.701 C 821.249 163.600, 820 161.233, 820 151.809 L 820 144 825 144 C 829.667 144, 830 143.833, 830 141.500 C 830 139.167, 829.667 139, 825 139 L 820 139 820 134.500 C 820 130.167, 819.889 130, 817 130 C 814.111 130, 814 130.167, 814 134.500" fill="black" /></svg>