<svg width="1584" height="396" viewBox="0 0 1584 396" xmlns="http://www.w3.org/2000/svg"><path d="M 880.241 139.995 C 875.514 142.876, 873.007 147.557, 873.007 153.500 C 873.007 165.490, 884.660 172.512, 896.410 167.602 C 900.661 165.826, 901.647 164.218, 899.686 162.258 C 898.286 160.857, 897.782 160.876, 894.471 162.447 C 889.774 164.676, 884.796 163.827, 882.043 160.328 C 880.919 158.899, 880 157.341, 880 156.865 C 880 156.389, 885.175 156, 891.500 156 L 903 156 903 151.950 C 903 147.128, 901.022 142.949, 897.385 140.088 C 893.775 137.249, 884.825 137.200, 880.241 139.995" fill="black" /></svg>