<svg width="1584" height="396" viewBox="0 0 1584 396" xmlns="http://www.w3.org/2000/svg"><path d="M 785.264 193.431 C 781.744 196.393, 780.701 200.333, 782.098 205.393 C 783.477 210.387, 786.574 212.182, 793.159 211.805 L 798.500 211.500 798.802 206.250 L 799.105 201 795.552 201 C 793.599 201, 792 201.450, 792 202 C 792 202.550, 792.900 203, 794 203 C 795.619 203, 796 203.667, 796 206.500 C 796 209.788, 795.802 210, 792.723 210 C 788.277 210, 785.207 207.622, 784.451 203.593 C 783.145 196.630, 788.457 191.822, 795.502 193.590 C 797.614 194.120, 798.153 193.956, 797.802 192.891 C 797.522 192.041, 795.581 191.384, 792.807 191.201 C 789.147 190.959, 787.690 191.390, 785.264 193.431" fill="black" /></svg>