<svg width="1584" height="396" viewBox="0 0 1584 396" xmlns="http://www.w3.org/2000/svg"><path d="M 750 148.532 C 750 160.287, 751.301 164.841, 755.433 167.548 C 759.091 169.945, 767.203 169.097, 770.533 165.969 L 773 163.651 773 166.326 C 773 168.715, 773.372 169, 776.500 169 L 780 169 780 153.500 L 780 138 776.594 138 L 773.187 138 772.844 148.088 C 772.516 157.708, 772.370 158.288, 769.694 160.588 C 766.111 163.668, 762.563 163.654, 759.455 160.545 C 757.174 158.265, 757 157.378, 757 148.045 L 757 138 753.500 138 L 750 138 750 148.532" fill="black" /></svg>