<svg width="1584" height="396" viewBox="0 0 1584 396" xmlns="http://www.w3.org/2000/svg"><path d="M 647.399 144.191 C 648.694 147.661, 651.272 154.660, 653.127 159.744 L 656.500 168.988 660.044 168.994 L 663.588 169 666.417 160.250 C 671.370 144.929, 671.163 144.983, 675.464 157.892 L 679.202 169.109 682.846 168.804 L 686.490 168.500 691.691 154.500 C 694.551 146.800, 696.915 139.909, 696.945 139.187 C 696.982 138.304, 695.959 137.976, 693.828 138.187 C 690.743 138.491, 690.556 138.796, 687.078 149.180 C 685.110 155.054, 683.255 160.100, 682.955 160.392 C 682.655 160.684, 680.704 155.741, 678.619 149.406 L 674.829 137.889 671.184 138.195 L 667.540 138.500 664.092 149.750 C 662.195 155.938, 660.386 160.990, 660.072 160.979 C 659.757 160.967, 657.908 155.905, 655.963 149.729 L 652.426 138.500 648.736 138.191 L 645.045 137.882 647.399 144.191" fill="black" /></svg>