<svg width="1584" height="396" viewBox="0 0 1584 396" xmlns="http://www.w3.org/2000/svg"><path d="M 753 201.500 C 753 207.833, 753.397 212, 754 212 C 754.589 212, 755.008 208.404, 755.018 203.250 L 755.037 194.500 760.580 203 C 763.940 208.153, 766.900 211.628, 768.097 211.824 C 769.971 212.132, 770.057 211.625, 769.786 201.905 C 769.593 195.007, 769.105 191.532, 768.292 191.262 C 767.427 190.975, 767 193.213, 766.792 199.128 L 766.500 207.394 761.124 199.197 C 758.167 194.689, 755.130 191, 754.374 191 C 753.296 191, 753 193.262, 753 201.500" fill="black" /></svg>