<svg width="1584" height="396" viewBox="0 0 1584 396" xmlns="http://www.w3.org/2000/svg"><path d="M 664 201.500 C 664 210.167, 664.262 212, 665.500 212 C 666.608 212, 667 210.840, 667 207.559 C 667 205.116, 667.430 202.852, 667.957 202.527 C 668.483 202.202, 670.604 204.200, 672.670 206.968 C 674.736 209.736, 677.032 212, 677.772 212 C 679.292 212, 679.078 211.562, 674.240 204.795 L 670.877 200.089 675.066 195.545 C 677.665 192.725, 678.689 191, 677.764 191 C 676.944 191, 674.187 193.231, 671.637 195.957 L 667 200.914 667 195.957 C 667 192.217, 666.632 191, 665.500 191 C 664.262 191, 664 192.833, 664 201.500" fill="black" /></svg>