<svg width="1584" height="396" viewBox="0 0 1584 396" xmlns="http://www.w3.org/2000/svg"><path d="M 947.518 140.287 C 945.046,148.510,945.901,150.337,956.487 159.209 C 965.506,166.260,965.574,166.349,962.888 167.624 C 945.508,174.412,938.225,178.242,923.500 189.039 C 904.291,202.808,895.254,205.965,875.000 205.979 C 858.064,205.991,846.044,203.974,830.116 198.446 C 818.895,194.552,816.340,193.980,814.306 194.906 C 812.276,195.831,811.931,196.612,812.190 199.684 C 812.474,203.048,813.086,203.713,819.500 207.625 C 833.248,216.009,850.046,221.339,868.757 223.253 C 888.438,225.266,897.266,222.622,918.000 208.501 C 924.325,204.193,932.650,199.151,936.497 197.202 C 944.448,192.831,957.202,187.362,962.796 186.132 L 966.543 185.165 L 963.588 189.849 C 958.935,197.018,956.284,205.719,958.320 207.409 C 958.643,207.675,961.119,205.597,963.805 202.743 C 970.603,195.169,976.170,190.497,986.640 182.996 C 993.339,177.444,995.645,174.913,996.809 172.294 C 998.771,167.792,999.745,157.048,998.323 155.837 C 997.746,155.342,993.189,154.803,988.048 154.411 C 976.316,152.676,965.312,147.630,956.589 140.330 C 953.002,137.206,949.856,134.607,949.618 134.640 C 949.381,134.673,948.436,137.216,947.518 140.287" fill="black" /></svg>