<svg width="1584" height="396" viewBox="0 0 1584 396" xmlns="http://www.w3.org/2000/svg"><path d="M 579 201.500 C 579 207.833, 579.397 212, 580 212 C 580.586 212, 581.026 208.374, 581.064 203.250 L 581.127 194.500 584.427 203 C 586.306 207.840, 588.308 211.500, 589.077 211.500 C 589.845 211.500, 591.737 208.050, 593.464 203.500 L 596.500 195.500 596.790 203.750 C 597.017 210.182, 597.402 212, 598.540 212 C 599.728 212, 600 210.029, 600 201.430 C 600 191.049, 599.960 190.867, 597.755 191.180 C 595.966 191.435, 594.920 193.067, 592.603 199.215 C 591.004 203.458, 589.360 206.723, 588.951 206.470 C 588.541 206.217, 586.975 202.632, 585.469 198.505 C 583.397 192.824, 582.279 191, 580.866 191 C 579.163 191, 579 191.918, 579 201.500" fill="black" /></svg>