<svg width="1584" height="396" viewBox="0 0 1584 396" xmlns="http://www.w3.org/2000/svg"><path d="M 555.491 129.865 C 548.493 133.044, 543.011 141.229, 543.011 148.500 C 543.011 156.126, 549.114 164.732, 556.529 167.564 C 562.125 169.702, 571.145 169.157, 576.553 166.356 L 580.500 164.311 580.792 156.655 L 581.084 149 578.042 149 C 575.018 149, 575 149.033, 575 154.551 C 575 160.012, 574.940 160.127, 571.280 161.656 C 563.392 164.952, 554.600 161.457, 551.541 153.810 C 546.326 140.777, 560.093 129.415, 573.074 136.038 C 577.329 138.208, 578.373 138.041, 580.043 134.921 C 580.979 133.171, 580.508 132.679, 575.798 130.486 C 569.316 127.468, 561.306 127.223, 555.491 129.865" fill="black" /></svg>