<svg xmlns="http://www.w3.org/2000/svg" width="500" height="500" viewBox="0 0 500 500" version="1.1">
	<path d="M 325 220 L 325 240 328 240 L 331 240 331 232.047 C 331 223.076, 332.121 219.722, 335.657 218.110 C 339.236 216.480, 341.747 216.747, 344 219 C 345.719 220.719, 346 222.333, 346 230.500 L 346 240 349 240 L 352 240 352 229.016 C 352 218.292, 351.931 217.954, 349.082 214.766 C 346.606 211.995, 345.483 211.500, 341.666 211.500 C 338.552 211.500, 336.219 212.202, 334.084 213.780 L 331 216.060 331 208.030 L 331 200 328 200 L 325 200 325 220 M 40.500 202.914 C 35.880 204.071, 31.384 206.696, 29.145 209.543 C 22.304 218.239, 24.389 230.617, 33.778 237.050 C 38.714 240.432, 48.088 240.939, 54.362 238.164 L 59 236.112 59 229.056 C 59 222.196, 58.930 222, 56.500 222 C 54.169 222, 54 222.336, 54 226.965 C 54 232.747, 52.396 234.144, 45.643 234.247 C 37.207 234.374, 32 229.198, 32 220.685 C 32 210.687, 42.776 205.042, 52.448 209.973 C 56.094 211.833, 56.394 211.847, 57.625 210.223 C 59.417 207.861, 58.939 206.915, 54.939 204.902 C 50.701 202.770, 44.487 201.914, 40.500 202.914 M 202 221.500 L 202 240 205.500 240 L 209 240 209 232.540 L 209 225.081 217.250 224.790 C 225.306 224.507, 225.500 224.441, 225.500 222 C 225.500 219.559, 225.306 219.493, 217.250 219.210 L 209 218.919 209 213.460 L 209 208 218 208 C 226.933 208, 227 207.981, 227 205.500 L 227 203 214.500 203 L 202 203 202 221.500 M 300 209 C 300 212.333, 299.667 213, 298 213 C 296.667 213, 296 213.667, 296 215 C 296 216.291, 296.667 217, 297.881 217 C 299.562 217, 299.806 218.020, 300.183 226.630 C 300.558 235.211, 300.855 236.465, 302.913 238.130 C 305.316 240.076, 311.459 240.629, 313.848 239.115 C 314.590 238.645, 315.030 237.414, 314.826 236.380 C 314.549 234.971, 313.584 234.500, 310.978 234.500 L 307.500 234.500 307.211 225.750 L 306.922 217 310.961 217 C 314.333 217, 315 216.670, 315 215 C 315 213.333, 314.333 213, 311 213 L 307 213 307 209 C 307 205.095, 306.917 205, 303.500 205 C 300.083 205, 300 205.095, 300 209 M 83.021 212.116 C 81.657 212.660, 79.744 213.826, 78.771 214.708 C 77.129 216.194, 77 216.154, 77 214.155 C 77 212.427, 76.405 212, 74 212 L 71 212 71 226 L 71 240 74 240 L 77 240 77 232.968 C 77 223.716, 78.759 219.578, 83.408 217.897 C 86.366 216.828, 87 216.104, 87 213.799 C 87 210.756, 86.723 210.639, 83.021 212.116 M 103.410 212.055 C 96.205 214.198, 91.914 222.254, 93.950 229.815 C 96.328 238.646, 107.289 242.812, 115.938 238.173 C 124.781 233.430, 125.285 219.037, 116.798 213.650 C 113.723 211.699, 107.216 210.924, 103.410 212.055 M 287 211.711 C 286.175 212.010, 284.488 213.176, 283.250 214.302 L 281 216.349 281 214.174 C 281 212.425, 280.414 212, 278 212 L 275 212 275 226 L 275 240 278 240 L 281 240 281 231 C 281 220.942, 282.267 218.497, 288.085 217.333 C 290.610 216.828, 291.057 216.312, 290.803 214.191 C 290.482 211.501, 289.444 210.824, 287 211.711 M 370.500 212.474 C 365.718 214.208, 363.391 216.835, 361.975 222.095 C 359.421 231.579, 366.033 240, 376.033 240 C 380.718 240, 387 237.427, 387 235.509 C 387 233.019, 384.630 232.090, 381.997 233.547 C 378.364 235.558, 373.652 235.301, 370.635 232.927 C 365.532 228.914, 366.991 228, 378.500 228 L 389 228 388.996 224.250 C 388.992 220.168, 386.179 214.701, 383.285 213.153 C 379.808 211.292, 374.531 211.011, 370.500 212.474 M 411.021 212.116 C 409.657 212.660, 407.744 213.826, 406.771 214.708 C 405.129 216.194, 405 216.154, 405 214.155 C 405 212.427, 404.405 212, 402 212 L 399 212 399 226 L 399 240 401.901 240 L 404.801 240 405.151 231.104 C 405.538 221.236, 406.869 218.627, 412.104 217.477 C 414.492 216.953, 415 216.329, 415 213.921 C 415 210.753, 414.737 210.633, 411.021 212.116 M 129.455 213.857 C 129.803 214.956, 132.054 221.175, 134.455 227.677 C 138.774 239.371, 138.858 239.503, 142.183 239.797 L 145.544 240.094 148.862 229.970 C 150.687 224.403, 152.354 220.020, 152.566 220.232 C 152.777 220.444, 154.487 224.866, 156.364 230.059 C 159.732 239.375, 159.821 239.500, 163.067 239.500 L 166.357 239.500 171.130 226.500 C 173.756 219.350, 175.925 213.162, 175.952 212.750 C 175.978 212.338, 174.679 212, 173.065 212 C 170.233 212, 170.016 212.349, 166.852 222 C 165.050 227.500, 163.316 232, 163 232 C 162.684 232, 160.950 227.500, 159.148 222 L 155.870 212 152.500 212 L 149.131 212 145.897 222.532 C 144.118 228.324, 142.328 232.712, 141.919 232.282 C 141.509 231.852, 139.858 227.225, 138.248 222 C 135.388 212.717, 135.247 212.493, 132.071 212.180 C 129.217 211.899, 128.898 212.103, 129.455 213.857 M 235 221.532 C 235 235.962, 237.374 240, 245.858 240 C 248.690 240, 250.739 239.249, 252.923 237.411 L 256 234.822 256 237.411 C 256 239.621, 256.439 240, 259 240 L 262 240 262 226 L 262 212 259.099 212 L 256.199 212 255.849 220.896 C 255.419 231.851, 253.872 234.263, 247.575 233.798 C 242.244 233.404, 241.034 230.904, 241.015 220.250 L 241 212 238 212 L 235 212 235 221.532 M 372.315 217.007 C 370.165 217.873, 368 220.847, 368 222.934 C 368 224.060, 382.174 224.492, 383.266 223.400 C 384.359 222.308, 381.820 218.239, 379.343 217.110 C 376.509 215.819, 375.307 215.801, 372.315 217.007 M 102.174 219.314 C 97.073 224.744, 100.903 235, 108.031 235 C 111.997 235, 117 230.273, 117 226.527 C 117 223.199, 114.567 218.432, 112.455 217.621 C 108.911 216.261, 104.334 217.015, 102.174 219.314 M 443.029 223.911 C 441.099 229.761, 442.367 232.602, 450.265 240.118 C 454.197 243.859, 457.208 247.074, 456.957 247.261 C 456.705 247.449, 453.906 248.120, 450.736 248.751 C 442.545 250.384, 434.077 254.444, 424.658 261.254 C 420.171 264.499, 413.125 268.791, 409 270.792 C 401.692 274.337, 401.149 274.441, 387.804 274.827 C 371.800 275.291, 364.370 274.215, 350.575 269.437 C 338.731 265.335, 337.302 265.244, 335.820 268.496 C 334.276 271.885, 336.144 273.812, 345.902 278.888 C 358.109 285.239, 369.327 288.132, 384 288.712 C 395.236 289.156, 397.100 288.979, 402.431 286.963 C 405.693 285.730, 412.668 281.798, 417.931 278.225 C 433.169 267.881, 441.835 264.138, 454.500 262.429 L 459.500 261.754 456.803 264.627 C 455.320 266.207, 453.407 269.173, 452.553 271.218 C 451.020 274.887, 450.487 279, 451.543 279 C 451.842 279, 454.437 277.224, 457.312 275.054 C 462.573 271.082, 468.666 268.434, 479.226 265.532 C 482.375 264.666, 485.368 263.180, 485.877 262.229 C 487.234 259.694, 488.181 251.680, 487.278 250.379 C 486.850 249.762, 483.575 247.801, 480 246.019 C 469.801 240.938, 458.045 232.701, 451.531 226.073 C 448.249 222.733, 445.283 220, 444.941 220 C 444.600 220, 443.739 221.760, 443.029 223.911 M 63 270.930 C 63 279.214, 63.266 281, 64.500 281 C 65.699 281, 66.013 279.444, 66.063 273.250 L 66.125 265.500 69.147 273.250 C 70.809 277.512, 72.704 281, 73.357 281 C 74.010 281, 75.964 277.288, 77.699 272.750 L 80.854 264.500 80.927 272.750 C 80.986 279.384, 81.294 281, 82.500 281 C 83.733 281, 84 279.222, 84 271 C 84 261.293, 83.934 261, 81.750 261.011 C 79.854 261.021, 79.019 262.305, 76.440 269.171 L 73.381 277.320 70.408 269.410 C 68.048 263.128, 66.979 261.434, 65.218 261.180 C 63.053 260.869, 63 261.102, 63 270.930 M 106.077 263.250 C 105.597 264.488, 104.212 267.975, 103 271 C 98.879 281.284, 98.953 281, 100.403 281 C 101.148 281, 102.317 279.650, 103 278 C 104.083 275.386, 104.749 275, 108.173 275 C 111.642 275, 112.227 275.353, 113.150 278 C 113.725 279.650, 114.864 281, 115.681 281 C 116.498 281, 117.017 280.641, 116.833 280.203 C 116.650 279.764, 114.937 275.264, 113.028 270.203 C 109.526 260.923, 107.692 259.089, 106.077 263.250 M 133 271 C 133 279.222, 133.267 281, 134.500 281 C 135.583 281, 136 279.889, 136 277 C 136 273.802, 136.364 273, 137.816 273 C 138.893 273, 140.546 274.627, 141.880 277 C 143.116 279.200, 144.817 281, 145.659 281 C 146.876 281, 146.665 280.104, 144.627 276.626 C 142.085 272.288, 142.080 272.238, 144.032 270.471 C 148.681 266.263, 145.147 261, 137.671 261 L 133 261 133 271 M 163 271 C 163 279.222, 163.267 281, 164.500 281 C 165.580 281, 166 279.895, 166 277.059 C 166 272.331, 167.596 270.979, 169.675 273.946 C 172.888 278.533, 175.689 281.270, 176.785 280.893 C 177.452 280.664, 176.244 278.296, 173.886 275.207 L 169.844 269.915 173.594 265.765 C 176.147 262.938, 176.920 261.473, 176.016 261.172 C 175.285 260.928, 172.750 262.928, 170.382 265.615 L 166.077 270.500 166.038 265.750 C 166.010 262.212, 165.617 261, 164.500 261 C 163.267 261, 163 262.778, 163 271 M 194 271 L 194 281 199.500 281 C 202.525 281, 205 280.550, 205 280 C 205 279.450, 202.975 279, 200.500 279 C 196.038 279, 196 278.971, 196 275.557 C 196 272.222, 196.133 272.105, 200.250 271.807 C 202.588 271.638, 204.500 271.050, 204.500 270.500 C 204.500 269.950, 202.588 269.362, 200.250 269.193 C 196.283 268.905, 196 268.689, 196 265.943 C 196 263.122, 196.186 263, 200.500 263 C 202.975 263, 205 262.550, 205 262 C 205 261.450, 202.525 261, 199.500 261 L 194 261 194 271 M 220 262 C 220 262.550, 221.350 263, 223 263 L 226 263 226 272 C 226 279.333, 226.278 281, 227.500 281 C 228.722 281, 229 279.333, 229 272 L 229 263 232 263 C 233.650 263, 235 262.550, 235 262 C 235 261.422, 231.833 261, 227.500 261 C 223.167 261, 220 261.422, 220 262 M 251 271 C 251 279.222, 251.267 281, 252.500 281 C 253.733 281, 254 279.222, 254 271 C 254 262.778, 253.733 261, 252.500 261 C 251.267 261, 251 262.778, 251 271 M 272 271 C 272 279.437, 272.246 281, 273.576 281 C 274.906 281, 275.101 279.758, 274.826 273.045 C 274.647 268.670, 274.773 265.408, 275.106 265.795 C 275.440 266.183, 277.793 269.762, 280.336 273.750 C 286.831 283.934, 288 283.515, 288 271 C 288 265, 287.600 261, 287 261 C 286.414 261, 286 264.414, 286 269.241 L 286 277.482 280.483 269.241 C 273.025 258.103, 272 258.316, 272 271 M 309.750 262.055 C 304.695 265.071, 303.821 274.051, 308.135 278.643 C 309.969 280.596, 311.348 281, 316.174 281 L 322 281 322 275.500 L 322 270 318.500 270 C 316.056 270, 315 270.452, 315 271.500 C 315 272.444, 315.952 273, 317.566 273 C 319.776 273, 320.089 273.382, 319.816 275.750 C 319.544 278.120, 318.997 278.542, 315.865 278.804 C 312.911 279.050, 311.833 278.603, 310.115 276.419 C 305.443 270.479, 309.455 262.511, 316.787 263.168 C 318.829 263.350, 320.725 263.050, 321 262.500 C 321.687 261.125, 311.954 260.741, 309.750 262.055 M 136 266.434 C 136 269.738, 136.223 270, 139.031 270 C 144.495 270, 144.150 263.841, 138.649 263.184 C 136.220 262.893, 136 263.163, 136 266.434 M 106.796 268 C 105.587 270.876, 105.563 271.558, 106.662 271.823 C 110.017 272.634, 110.753 271.638, 109.486 268 L 108.267 264.500 106.796 268" stroke="none" fill="white" fill-rule="evenodd"/>
</svg>