<?xml version="1.0" encoding="UTF-8"?>
<svg width="1200" height="630" viewBox="0 0 1200 630" xmlns="http://www.w3.org/2000/svg">
  <!-- Background -->
  <rect width="1200" height="630" fill="#0F172A"/>
  
  <!-- Subtle Grid/Glow -->
  <circle cx="600" cy="315" r="400" fill="#3B82F6" opacity="0.1" filter="blur(100px)" />
  
  <g transform="translate(360, 255) scale(1)">
    <!-- Scale adjusted so the 480x120 viewBox of the logo fits well inside 1200x630 -->
    <path d="M 837 146.937 L 837 169 840.500 169 L 844 169 844 158.955 C 844 149.622, 844.174 148.735, 846.455 146.455 C 849.896 143.014, 855.144 143.096, 857.927 146.635 C 859.706 148.896, 860 150.669, 860 159.135 L 860 169 863.500 169 L 867 169 867 158.468 C 867 142.420, 864.282 138, 854.412 138 C 850.750 138, 848.523 138.587, 846.676 140.040 L 844.082 142.081 843.791 133.790 L 843.500 125.500 840.250 125.187 L 837 124.873 837 146.937 M 555.491 129.865 C 548.493 133.044, 543.011 141.229, 543.011 148.500 C 543.011 156.126, 549.114 164.732, 556.529 167.564 C 562.125 169.702, 571.145 169.157, 576.553 166.356 L 580.500 164.311 580.792 156.655 L 581.084 149 578.042 149 C 575.018 149, 575 149.033, 575 154.551 C 575 160.012, 574.940 160.127, 571.280 161.656 C 563.392 164.952, 554.600 161.457, 551.541 153.810 C 546.326 140.777, 560.093 129.415, 573.074 136.038 C 577.329 138.208, 578.373 138.041, 580.043 134.921 C 580.979 133.171, 580.508 132.679, 575.798 130.486 C 569.316 127.468, 561.306 127.223, 555.491 129.865 M 718 148.500 L 718 169 721.500 169 L 725 169 725 160.500 L 725 152 734 152 L 743 152 743 149 L 743 146 734 146 L 725 146 725 140 L 725 134 735 134 L 745 134 745 131 L 745 128 731.500 128 L 718 128 718 148.500 M 814 134.500 C 814 138.633, 813.796 139, 811.500 139 C 809.500 139, 809 139.500, 809 141.500 C 809 143.500, 809.500 144, 811.500 144 L 814 144 814 154.326 C 814 163.826, 814.185 164.825, 816.314 166.826 C 820.762 171.004, 830.660 169.088, 829.380 164.296 C 828.885 162.444, 828.304 162.189, 825.745 162.701 C 821.249 163.600, 820 161.233, 820 151.809 L 820 144 825 144 C 829.667 144, 830 143.833, 830 141.500 C 830 139.167, 829.667 139, 825 139 L 820 139 820 134.500 C 820 130.167, 819.889 130, 817 130 C 814.111 130, 814 130.167, 814 134.500 M 590 153.500 L 590 169 593.500 169 L 597 169 597 159.635 C 597 148.772, 598.603 145.540, 604.543 144.426 C 607.538 143.864, 608 143.391, 608 140.889 C 608 138.498, 607.582 138, 605.577 138 C 604.244 138, 601.769 139.165, 600.077 140.589 L 597 143.178 597 140.589 C 597 138.297, 596.599 138, 593.500 138 L 590 138 590 153.500 M 616.825 140.473 C 610.185 144.985, 608.358 154.714, 612.752 162.156 C 616.474 168.459, 627.720 170.995, 635.016 167.176 C 645.167 161.862, 645.139 144.743, 634.971 139.485 C 630.266 137.052, 621.127 137.549, 616.825 140.473 M 647.399 144.191 C 648.694 147.661, 651.272 154.660, 653.127 159.744 L 656.500 168.988 660.044 168.994 L 663.588 169 666.417 160.250 C 671.370 144.929, 671.163 144.983, 675.464 157.892 L 679.202 169.109 682.846 168.804 L 686.490 168.500 691.691 154.500 C 694.551 146.800, 696.915 139.909, 696.945 139.187 C 696.982 138.304, 695.959 137.976, 693.828 138.187 C 690.743 138.491, 690.556 138.796, 687.078 149.180 C 685.110 155.054, 683.255 160.100, 682.955 160.392 C 682.655 160.684, 680.704 155.741, 678.619 149.406 L 674.829 137.889 671.184 138.195 L 667.540 138.500 664.092 149.750 C 662.195 155.938, 660.386 160.990, 660.072 160.979 C 659.757 160.967, 657.908 155.905, 655.963 149.729 L 652.426 138.500 648.736 138.191 L 645.045 137.882 647.399 144.191 M 750 148.532 C 750 160.287, 751.301 164.841, 755.433 167.548 C 759.091 169.945, 767.203 169.097, 770.533 165.969 L 773 163.651 773 166.326 C 773 168.715, 773.372 169, 776.500 169 L 780 169 780 153.500 L 780 138 776.594 138 L 773.187 138 772.844 148.088 C 772.516 157.708, 772.370 158.288, 769.694 160.588 C 766.111 163.668, 762.563 163.654, 759.455 160.545 C 757.174 158.265, 757 157.378, 757 148.045 L 757 138 753.500 138 L 750 138 750 148.532 M 789 153.500 L 789 169 792.500 169 L 796 169 796 160.450 C 796 155.006, 796.518 150.900, 797.425 149.145 C 798.823 146.441, 802.676 144, 805.547 144 C 806.495 144, 807 142.957, 807 141 C 807 138.492, 806.603 138, 804.577 138 C 803.244 138, 800.769 139.165, 799.077 140.589 L 796 143.178 796 140.589 C 796 138.297, 795.599 138, 792.500 138 L 789 138 789 153.500 M 880.241 139.995 C 875.514 142.876, 873.007 147.557, 873.007 153.500 C 873.007 165.490, 884.660 172.512, 896.410 167.602 C 900.661 165.826, 901.647 164.218, 899.686 162.258 C 898.286 160.857, 897.782 160.876, 894.471 162.447 C 889.774 164.676, 884.796 163.827, 882.043 160.328 C 880.919 158.899, 880 157.341, 880 156.865 C 880 156.389, 885.175 156, 891.500 156 L 903 156 903 151.950 C 903 147.128, 901.022 142.949, 897.385 140.088 C 893.775 137.249, 884.825 137.200, 880.241 139.995 M 910 153.500 L 910 169 913.500 169 L 917 169 917 159.635 C 917 148.772, 918.603 145.540, 924.543 144.426 C 927.538 143.864, 928 143.391, 928 140.889 C 928 138.498, 927.582 138, 925.577 138 C 924.244 138, 921.769 139.165, 920.077 140.589 L 917 143.178 917 140.589 C 917 138.297, 916.599 138, 913.500 138 L 910 138 910 153.500 M 622.383 144.583 C 616.669 147.402, 615.265 154.785, 619.489 159.805 C 625.441 166.878, 636 162.846, 636 153.500 C 636 149.383, 633.352 145.318, 629.881 144.108 C 625.945 142.736, 626.154 142.723, 622.383 144.583 M 882.455 145.455 C 877.910 149.999, 879.001 151, 888.500 151 C 895.500 151, 897 150.727, 897 149.455 C 897 146.542, 892.336 143, 888.500 143 C 886.021 143, 884.149 143.760, 882.455 145.455 M 579 201.500 C 579 207.833, 579.397 212, 580 212 C 580.586 212, 581.026 208.374, 581.064 203.250 L 581.127 194.500 584.427 203 C 586.306 207.840, 588.308 211.500, 589.077 211.500 C 589.845 211.500, 591.737 208.050, 593.464 203.500 L 596.500 195.500 596.790 203.750 C 597.017 210.182, 597.402 212, 598.540 212 C 599.728 212, 600 210.029, 600 201.430 C 600 191.049, 599.960 190.867, 597.755 191.180 C 595.966 191.435, 594.920 193.067, 592.603 199.215 C 591.004 203.458, 589.360 206.723, 588.951 206.470 C 588.541 206.217, 586.975 202.632, 585.469 198.505 C 583.397 192.824, 582.279 191, 580.866 191 C 579.163 191, 579 191.918, 579 201.500 M 614.493 200.250 C 612.448 205.338, 610.553 210.063, 610.281 210.750 C 610.009 211.438, 610.465 212, 611.295 212 C 612.125 212, 613.275 210.650, 613.850 209 C 614.806 206.259, 615.289 206, 619.448 206 C 622.532 206, 624 206.422, 624 207.309 C 624 209.154, 626.700 212.634, 627.506 211.827 C 628.480 210.853, 620.711 191.003, 619.355 191.001 C 618.725 191.001, 616.537 195.162, 614.493 200.250 M 639 201.500 C 639 207.406, 639.412 212, 639.943 212 C 640.461 212, 641.023 210.091, 641.193 207.759 C 641.634 201.671, 644.169 201.543, 647.725 207.430 C 649.243 209.944, 651.051 212, 651.743 212 C 653.447 212, 653.351 211.506, 650.773 207.027 C 648.657 203.350, 648.632 203.064, 650.273 201.250 C 652.700 198.569, 652.464 194.439, 649.777 192.557 C 648.555 191.701, 645.630 191, 643.277 191 L 639 191 639 201.500 M 664 201.500 C 664 210.167, 664.262 212, 665.500 212 C 666.608 212, 667 210.840, 667 207.559 C 667 205.116, 667.430 202.852, 667.957 202.527 C 668.483 202.202, 670.604 204.200, 672.670 206.968 C 674.736 209.736, 677.032 212, 677.772 212 C 679.292 212, 679.078 211.562, 674.240 204.795 L 670.877 200.089 675.066 195.545 C 677.665 192.725, 678.689 191, 677.764 191 C 676.944 191, 674.187 193.231, 671.637 195.957 L 667 200.914 667 195.957 C 667 192.217, 666.632 191, 665.500 191 C 664.262 191, 664 192.833, 664 201.500 M 690 201.500 L 690 212 696 212 C 703.103 212, 704.103 210.244, 697.250 209.805 C 692.546 209.503, 692.500 209.466, 692.500 206 C 692.500 202.597, 692.618 202.491, 696.750 202.193 C 702.450 201.780, 702.195 200, 696.437 200 C 691.891 200, 691.874 199.988, 692.187 196.750 C 692.487 193.634, 692.695 193.487, 697.250 193.195 C 704.103 192.756, 703.103 191, 696 191 L 690 191 690 201.500 M 711 192 C 711 192.550, 712.350 193, 714 193 L 717 193 717 202.500 C 717 210.169, 717.282 212, 718.462 212 C 719.620 212, 719.985 210.069, 720.212 202.750 L 720.500 193.500 723.750 193.187 C 730.210 192.564, 726.814 191, 719 191 C 714.333 191, 711 191.417, 711 192 M 737 201.500 C 737 210.167, 737.262 212, 738.500 212 C 739.738 212, 740 210.167, 740 201.500 C 740 192.833, 739.738 191, 738.500 191 C 737.262 191, 737 192.833, 737 201.500 M 753 201.500 C 753 207.833, 753.397 212, 754 212 C 754.589 212, 755.008 208.404, 755.018 203.250 L 755.037 194.500 760.580 203 C 763.940 208.153, 766.900 211.628, 768.097 211.824 C 769.971 212.132, 770.057 211.625, 769.786 201.905 C 769.593 195.007, 769.105 191.532, 768.292 191.262 C 767.427 190.975, 767 193.213, 766.792 199.128 L 766.500 207.394 761.124 199.197 C 758.167 194.689, 755.130 191, 754.374 191 C 753.296 191, 753 193.262, 753 201.500 M 785.264 193.431 C 781.744 196.393, 780.701 200.333, 782.098 205.393 C 783.477 210.387, 786.574 212.182, 793.159 211.805 L 798.500 211.500 798.802 206.250 L 799.105 201 795.552 201 C 793.599 201, 792 201.450, 792 202 C 792 202.550, 792.900 203, 794 203 C 795.619 203, 796 203.667, 796 206.500 C 796 209.788, 795.802 210, 792.723 210 C 788.277 210, 785.207 207.622, 784.451 203.593 C 783.145 196.630, 788.457 191.822, 795.502 193.590 C 797.614 194.120, 798.153 193.956, 797.802 192.891 C 797.522 192.041, 795.581 191.384, 792.807 191.201 C 789.147 190.959, 787.690 191.390, 785.264 193.431 M 641.667 193.667 C 641.300 194.033, 641 195.860, 641 197.727 C 641 201.037, 641.092 201.113, 644.750 200.810 C 648.006 200.541, 648.542 200.137, 648.816 197.750 C 649.069 195.557, 648.601 194.799, 646.501 194 C 643.408 192.824, 642.567 192.766, 641.667 193.667 M 617.778 198.577 C 616.206 202.494, 616.208 202.501, 618.693 202.825 C 622.058 203.265, 622.215 202.923, 620.680 198.490 L 619.352 194.654 617.778 198.577 M 947.518 140.287 C 945.046,148.510,945.901,150.337,956.487 159.209 C 965.506,166.260,965.574,166.349,962.888 167.624 C 945.508,174.412,938.225,178.242,923.500 189.039 C 904.291,202.808,895.254,205.965,875.000 205.979 C 858.064,205.991,846.044,203.974,830.116 198.446 C 818.895,194.552,816.340,193.980,814.306 194.906 C 812.276,195.831,811.931,196.612,812.190 199.684 C 812.474,203.048,813.086,203.713,819.500 207.625 C 833.248,216.009,850.046,221.339,868.757 223.253 C 888.438,225.266,897.266,222.622,918.000 208.501 C 924.325,204.193,932.650,199.151,936.497 197.202 C 944.448,192.831,957.202,187.362,962.796 186.132 L 966.543 185.165 L 963.588 189.849 C 958.935,197.018,956.284,205.719,958.320 207.409 C 958.643,207.675,961.119,205.597,963.805 202.743 C 970.603,195.169,976.170,190.497,986.640 182.996 C 993.339,177.444,995.645,174.913,996.809 172.294 C 998.771,167.792,999.745,157.048,998.323 155.837 C 997.746,155.342,993.189,154.803,988.048 154.411 C 976.316,152.676,965.312,147.630,956.589 140.330 C 953.002,137.206,949.856,134.607,949.618 134.640 C 949.381,134.673,948.436,137.216,947.518 140.287 " stroke="none" fill="#FFFFFF" fill-rule="evenodd"/>
  </g>
</svg>
